<svg width="755" height="113" viewBox="0 0 755 113" fill="none" xmlns="http://www.w3.org/2000/svg">
<rect x="79.2858" y="39.6426" width="31.7142" height="23.7857" rx="4.94518" fill="#02004E"/>
<rect width="111" height="27.75" rx="4.94518" fill="#5C7EF1"/>
<rect y="75.3213" width="27.75" height="23.7857" rx="4.94518" fill="#8C9DFF"/>
<rect x="43.6072" y="75.3213" width="67.3927" height="23.7857" rx="4.94518" fill="#02004E"/>
<rect y="39.6426" width="63.4285" height="23.7857" rx="4.94518" fill="#FFA70B"/>
<path d="M147.724 10.7838H198.315V25.0124H162.63V43.0804H197.637V57.3089H162.63V89.8314H147.724V10.7838Z" fill="#02004E"/>
<path d="M215.401 76.2804H235.05V24.3348H216.078V10.7838H249.278V76.2804H267.572V89.8314H215.401V76.2804Z" fill="#02004E"/>
<path d="M321.133 81.7008C319.627 85.2391 317.519 87.7611 314.809 89.2667C312.099 90.6971 308.937 91.4123 305.323 91.4123C301.936 91.4123 298.736 90.7724 295.725 89.4926C292.789 88.2128 290.191 86.3307 287.933 83.8463C285.674 81.362 283.868 78.3507 282.512 74.8123C281.233 71.274 280.593 67.2463 280.593 62.7293V60.9225C280.593 56.4808 281.233 52.4908 282.512 48.9525C283.792 45.4142 285.524 42.4028 287.707 39.9185C289.89 37.4341 292.412 35.5521 295.273 34.2722C298.209 32.9171 301.333 32.2396 304.646 32.2396C308.636 32.2396 311.835 32.9171 314.244 34.2722C316.729 35.6273 318.686 37.7353 320.117 40.596H322.149V33.8205H336.378V72.8926C336.378 75.1511 337.394 76.2804 339.427 76.2804H341.572V89.8314H331.861C329.301 89.8314 327.193 89.0785 325.537 87.5729C323.956 86.0672 323.166 84.1098 323.166 81.7008H321.133ZM308.485 77.8613C312.626 77.8613 315.938 76.5062 318.423 73.796C320.907 71.0105 322.149 67.2464 322.149 62.5035V61.1484C322.149 56.4055 320.907 52.679 318.423 49.9688C315.938 47.1833 312.626 45.7906 308.485 45.7906C304.345 45.7906 301.032 47.1833 298.548 49.9688C296.064 52.679 294.821 56.4055 294.821 61.1484V62.5035C294.821 67.2464 296.064 71.0105 298.548 73.796C301.032 76.5062 304.345 77.8613 308.485 77.8613Z" fill="#02004E"/>
<path d="M352.448 33.8205H369.047V10.7838H383.276V33.8205H403.49V47.3715H383.276V72.8926C383.276 75.1511 384.292 76.2804 386.325 76.2804H401.457V89.8314H377.743C375.183 89.8314 373.075 89.0032 371.419 87.347C369.838 85.6908 369.047 83.5828 369.047 81.0232V47.3715H352.448V33.8205Z" fill="#02004E"/>
<path d="M422.834 76.2804H442.483V24.3348H423.512V10.7838H456.712V76.2804H475.006V89.8314H422.834V76.2804Z" fill="#02004E"/>
<path d="M547.199 62.5035C547.199 67.1711 546.409 71.3117 544.828 74.9253C543.247 78.4636 541.101 81.4749 538.391 83.9593C535.681 86.3683 532.556 88.2128 529.018 89.4926C525.555 90.7724 521.904 91.4123 518.064 91.4123C514.225 91.4123 510.536 90.7724 506.998 89.4926C503.535 88.2128 500.448 86.3683 497.738 83.9593C495.028 81.4749 492.882 78.4636 491.301 74.9253C489.72 71.3117 488.93 67.1711 488.93 62.5035V61.1484C488.93 56.5561 489.72 52.4908 491.301 48.9525C492.882 45.3389 495.028 42.2899 497.738 39.8056C500.448 37.3212 503.535 35.4391 506.998 34.1593C510.536 32.8795 514.225 32.2396 518.064 32.2396C521.904 32.2396 525.555 32.8795 529.018 34.1593C532.556 35.4391 535.681 37.3212 538.391 39.8056C541.101 42.2899 543.247 45.3389 544.828 48.9525C546.409 52.4908 547.199 56.5561 547.199 61.1484V62.5035ZM518.064 77.8613C520.097 77.8613 522.017 77.5225 523.824 76.845C525.63 76.1674 527.211 75.1887 528.566 73.9089C529.922 72.6291 530.976 71.0858 531.728 69.279C532.556 67.3969 532.971 65.289 532.971 62.9552V60.6967C532.971 58.3629 532.556 56.2926 531.728 54.4858C530.976 52.6037 529.922 51.0228 528.566 49.743C527.211 48.4631 525.63 47.4845 523.824 46.8069C522.017 46.1294 520.097 45.7906 518.064 45.7906C516.032 45.7906 514.112 46.1294 512.305 46.8069C510.498 47.4845 508.918 48.4631 507.562 49.743C506.207 51.0228 505.116 52.6037 504.288 54.4858C503.535 56.2926 503.158 58.3629 503.158 60.6967V62.9552C503.158 65.289 503.535 67.3969 504.288 69.279C505.116 71.0858 506.207 72.6291 507.562 73.9089C508.918 75.1887 510.498 76.1674 512.305 76.845C514.112 77.5225 516.032 77.8613 518.064 77.8613Z" fill="#02004E"/>
<path d="M601.438 81.7008H599.405C598.803 82.9806 598.05 84.2228 597.146 85.4273C596.318 86.5565 595.189 87.5729 593.759 88.4763C592.404 89.3797 590.747 90.0949 588.79 90.6218C586.908 91.1488 584.612 91.4123 581.901 91.4123C578.438 91.4123 575.201 90.81 572.19 89.6055C569.254 88.3257 566.657 86.4812 564.398 84.0722C562.215 81.5878 560.483 78.5765 559.204 75.0382C557.999 71.4999 557.397 67.4346 557.397 62.8423V60.8096C557.397 56.2926 558.037 52.265 559.316 48.7266C560.672 45.1883 562.478 42.2146 564.737 39.8056C567.071 37.3212 569.743 35.4391 572.755 34.1593C575.841 32.8795 579.078 32.2396 582.466 32.2396C586.983 32.2396 590.559 33.1053 593.194 34.8369C595.829 36.4931 597.899 38.8645 599.405 41.9511H601.438V33.8205H615.666V103.608C615.666 106.168 614.838 108.276 613.182 109.932C611.601 111.588 609.53 112.416 606.971 112.416H569.254V98.8654H598.389C600.421 98.8654 601.438 97.7361 601.438 95.4776V81.7008ZM586.531 77.8613C590.973 77.8613 594.549 76.4686 597.259 73.6831C600.045 70.8223 601.438 67.0958 601.438 62.5035V61.1484C601.438 56.5561 600.045 52.8672 597.259 50.0817C594.549 47.221 590.973 45.7906 586.531 45.7906C582.09 45.7906 578.476 47.1833 575.691 49.9688C572.98 52.679 571.625 56.4055 571.625 61.1484V62.5035C571.625 67.2464 572.98 71.0105 575.691 73.796C578.476 76.5062 582.09 77.8613 586.531 77.8613Z" fill="#02004E"/>
<path d="M631.623 76.2804H650.594V47.3715H632.978V33.8205H664.823V76.2804H681.084V89.8314H631.623V76.2804ZM668.324 17.2206C668.324 18.7262 668.022 20.1566 667.42 21.5117C666.893 22.7915 666.14 23.9208 665.162 24.8995C664.183 25.8029 663.016 26.5557 661.661 27.158C660.381 27.6849 659.026 27.9484 657.596 27.9484C656.09 27.9484 654.697 27.6849 653.417 27.158C652.138 26.5557 651.008 25.8029 650.03 24.8995C649.051 23.9208 648.261 22.7915 647.658 21.5117C647.131 20.1566 646.868 18.7262 646.868 17.2206C646.868 15.7149 647.131 14.3221 647.658 13.0423C648.261 11.6872 649.051 10.558 650.03 9.65458C651.008 8.67589 652.138 7.92306 653.417 7.39608C654.697 6.79381 656.09 6.49268 657.596 6.49268C659.026 6.49268 660.381 6.79381 661.661 7.39608C663.016 7.92306 664.183 8.67589 665.162 9.65458C666.14 10.558 666.893 11.6872 667.42 13.0423C668.022 14.3221 668.324 15.7149 668.324 17.2206Z" fill="#02004E"/>
<path d="M754.407 69.279C753.127 75.9039 750.078 81.2491 745.26 85.3144C740.517 89.3797 734.156 91.4123 726.176 91.4123C722.035 91.4123 718.158 90.7724 714.544 89.4926C711.006 88.2128 707.919 86.3683 705.284 83.9593C702.65 81.5502 700.579 78.5765 699.074 75.0382C697.568 71.4999 696.815 67.4722 696.815 62.9552V61.6001C696.815 57.0831 697.568 53.0178 699.074 49.4042C700.579 45.7906 702.65 42.704 705.284 40.1443C707.995 37.5847 711.119 35.6273 714.657 34.2722C718.271 32.9171 722.11 32.2396 726.176 32.2396C734.005 32.2396 740.329 34.2722 745.147 38.3375C750.04 42.4028 753.127 47.748 754.407 54.3729L740.404 57.9865C739.952 54.674 738.522 51.8133 736.113 49.4042C733.704 46.9951 730.316 45.7906 725.95 45.7906C723.917 45.7906 721.997 46.167 720.191 46.9198C718.384 47.6727 716.803 48.7643 715.448 50.1947C714.093 51.5498 713.001 53.2436 712.173 55.2763C711.42 57.2337 711.044 59.4545 711.044 61.9389V62.6164C711.044 65.1008 711.42 67.3216 712.173 69.279C713.001 71.1611 714.093 72.742 715.448 74.0219C716.803 75.3017 718.384 76.2804 720.191 76.9579C721.997 77.5602 723.917 77.8613 725.95 77.8613C730.316 77.8613 733.629 76.7697 735.887 74.5865C738.221 72.4033 739.727 69.4672 740.404 65.7783L754.407 69.279Z" fill="#02004E"/>
</svg>
