<?xml version="1.0" encoding="utf-8"?>
<!-- Generator: Adobe Illustrator 26.4.1, SVG Export Plug-In . SVG Version: 6.00 Build 0)  -->
<svg version="1.1" id="Layer_1" xmlns="http://www.w3.org/2000/svg" xmlns:xlink="http://www.w3.org/1999/xlink" x="0px" y="0px"
	 viewBox="0 0 767.9 357.7" style="enable-background:new 0 0 767.9 357.7;" xml:space="preserve">
<style type="text/css">
	.st0{fill-rule:evenodd;clip-rule:evenodd;}
</style>
<g>
	<path d="M655.6,159.7c0-1.7,0.7-3.4,1.9-4.6c1.2-1.2,2.9-1.9,4.6-1.9c1.7,0,3.4,0.7,4.6,1.9c1.2,1.2,1.9,2.9,1.9,4.6
		c0,0.9-0.2,1.7-0.5,2.5c-0.3,0.8-0.8,1.5-1.4,2.1c-0.6,0.6-1.3,1.1-2.1,1.4c-0.8,0.3-1.6,0.5-2.5,0.5c-0.9,0-1.7-0.2-2.5-0.5
		c-0.8-0.3-1.5-0.8-2.1-1.4c-0.6-0.6-1.1-1.3-1.4-2.1C655.7,161.4,655.6,160.5,655.6,159.7z M656.8,159.7c0,0.7,0.1,1.4,0.4,2
		c0.3,0.6,0.6,1.2,1.1,1.7c0.5,0.5,1.1,0.9,1.7,1.2s1.3,0.4,2,0.4c1.4,0,2.8-0.6,3.7-1.6c1-1,1.5-2.3,1.5-3.8c0-1.4-0.6-2.8-1.5-3.8
		c-1-1-2.3-1.6-3.7-1.6c-0.7,0-1.4,0.1-2,0.4c-0.6,0.3-1.2,0.7-1.7,1.2c-0.5,0.5-0.9,1.1-1.1,1.7C656.9,158.3,656.8,159,656.8,159.7
		L656.8,159.7z M661.1,163.4h-1.5v-7.4h2.9c1.4,0,2.7,0.8,2.7,2.3c0,0.5-0.1,0.9-0.4,1.3c-0.3,0.4-0.6,0.7-1.1,0.8l1.5,3h-1.7
		l-1.4-2.7h-1.1V163.4z M662.4,157.4h-1.3v1.8h1.3c0.6,0,1.2-0.2,1.2-0.9C663.6,157.6,663,157.4,662.4,157.4L662.4,157.4z"/>
	<path class="st0" d="M350.7,211l-26.6-39.9V211h-11.8v-57.8h13.7l25.1,37.8v-37.8h11.8V211H350.7z"/>
	<path class="st0" d="M390,170.7c-12,0-21.6,8.9-21.6,20.7c0,11.9,9.5,20.5,21.5,20.5c12,0,21.6-8.9,21.6-20.8
		C411.4,179.4,401.8,170.7,390,170.7z M389.9,201.3c-5.4,0-9.8-4.1-9.8-10.1c0-6,4.3-10,9.7-10c5.4,0,9.8,4.1,9.8,10
		C399.6,197.1,395.3,201.3,389.9,201.3L389.9,201.3z"/>
	<path class="st0" d="M441.2,171.5v11.3c-1.2-0.2-2.5-0.3-3.7-0.3c-5.5,0-9.4,3.8-9.4,11.2V211h-11.3v-39.4h10.9v5.8h0.1
		c2.1-4.5,6.1-6.2,10.2-6.2C439.2,171.1,440.2,171.3,441.2,171.5z"/>
	<path class="st0" d="M474.2,153.1V176h-0.1c-4.1-4.8-9.5-5.2-11.8-5.2c-11.3,0-18.9,10.4-18.9,20.4c0,10.6,7.3,20.5,18.8,20.5
		c2.7,0,8.6-0.4,12.3-5.8h0.1v5h11.2v-57.8H474.2z M464.8,201.3c-5.4,0-9.8-4.1-9.8-10.1c0-6,4.4-10,9.8-10c5.4,0,9.8,4.1,9.8,10
		C474.5,197.1,470.1,201.3,464.8,201.3L464.8,201.3z"/>
	<path class="st0" d="M510.2,211l-20.9-57.8h12.9l15,44l15.1-44h12.7L524,211H510.2z"/>
	<path class="st0" d="M571.4,153.1h-21.5V211h12v-20.4h9.1c12.1,0,21.1-6.1,21.1-18.9C592,159.4,583,153.1,571.4,153.1z
		 M570.4,179.4h-8.6v-15h8.5c5,0,9.7,1.9,9.7,7.5C580,177.4,575.1,179.4,570.4,179.4z"/>
	<path class="st0" d="M636.5,211l-26.6-39.9V211h-11.8v-57.8h13.7l25.1,37.8v-37.8h11.8V211H636.5z"/>
	<path class="st0" d="M133.5,238.5c-9.3-12.8-14.3-28.3-14.3-44.1c0-41.5,33.6-75.1,75-75.1c41.4,0,75,33.6,75,75.1
		c0,15.8-5,31.3-14.3,44.1l-36-58.6l-3.5,5.9l3.5,16.4l-24.7-42.4l-15.3,25.9l3.6,16.5l-13-22.2L133.5,238.5z"/>
</g>
</svg>
